<svg id="Layer_1" data-name="Layer 1" xmlns="http://www.w3.org/2000/svg" viewBox="0 0 500 500"><defs><style>.cls-1{fill:#fff4ef;}.cls-2{fill:#f59495;}.cls-3{fill:#fddecc;}.cls-4{fill:#fdf5a3;}.cls-5{fill:#f4d760;}.cls-6{fill:#7fa390;}.cls-7{fill:#ecf3d1;}.cls-8{fill:#270d3d;}.cls-9{fill:#62917d;}</style></defs><title>male01</title><path class="cls-1" d="M234.12,179.85c-1.17-1.35-3.34-1.12-5-1.32a82.54,82.54,0,0,0-9.27-.19c-13.34.92-27.28,2.9-38.92,9.79l.12-.16c-4.22,3.81-2.54,10.06-1.7,14.9,3.09,14.81,16.21,27.87,31.91,26.73,12.85-.94,23.62-11.4,25.26-24.1C237.73,196.81,238.21,187.67,234.12,179.85Zm-13.75,25.78c-1.38,1.29-3.86,2.34-5.65,1.36-4.82-3.65.77-19.84,7.11-14.07C224.26,196.64,222.8,202.21,220.37,205.62Z"/><path class="cls-2" d="M243,237.24a1.73,1.73,0,0,0,.25.59c2,2.46,4.49,5.07,7.77,5.4,3.82.13,6.69-3.32,7.55-6.77A13.47,13.47,0,0,1,243,237.24Z"/><path class="cls-3" d="M256.84,319.05l0,0,1.35-.1c22-2.37,41.72-17.47,55.49-33.89,12.95-15.8,17.52-36.05,20.9-55.66a244.71,244.71,0,0,1,5.58-26.83c.11-.27.21-.57.31-.87-.45-10.73-.72-22-3-32.63-9.05-8.61-16.47-19.17-18.18-31.83-5.51,6.92-12-2.7-14.47-7.69-3-6-4.05-12.78-4.79-19.38,0-.47,0-.95-.07-1.44l-1.43,2c-2.3,3.08-4.09.15-5.11-2.15-1.48-2.85-4.13-5.09-7.49-4.25-7.43,1.72-13.2,7.2-19.52,11.16-10,6.35-21.63,12.85-33.8,12.11a6.85,6.85,0,0,1-5.48-5.88,49.19,49.19,0,0,1-5.31,3.65c-6.32,3.46-28.42,15.15-26.14-.28A64.36,64.36,0,0,1,172.15,139a5.61,5.61,0,0,0-.8.22,3.28,3.28,0,0,1,.1.66c.93,7.51,1.36,15.79-1.78,22.84-2.55,4.88-5.8,9.06-7.6,14.21-1.67,7.9-1.28,16-.63,23.91,2.05,7.31,3.08,14.84,4.65,22.26,5.55,25.21,11,51.91,29.42,70.87a87.91,87.91,0,0,0,58.64,24.94A8.45,8.45,0,0,1,256.84,319.05Zm24.42-168.6c6.17-3.44,13.7-.73,19.44,2.42,4.87,2.62,8.4,7.46,11.09,12.16.7,1.64,1.91,3.87.67,5.45h0a1.07,1.07,0,0,1-.64.19c-2.9-.6-5.55-2.12-8.32-3.14-8.28-3.72-17-6.35-25.46-9.36C275.62,155.66,278.95,151.82,281.25,150.45ZM189.5,164.9l-.06.14h0Zm.55.14c2.69-4.71,6.22-9.54,11.09-12.16,5.73-3.16,13.26-5.87,19.44-2.42,2.31,1.38,5.63,5.21,3.22,7.72-8.5,3-17.19,5.65-25.46,9.36-2.77,1-5.42,2.54-8.32,3.14a1.06,1.06,0,0,1-.65-.19h0C188.15,168.91,189.35,166.68,190.05,165ZM203.89,234c-10.54-1.86-19.71-9.17-24.49-18.67a54.82,54.82,0,0,1-5.14-15.46c-3.76,1.84-10.2,4.94-11.26,2.07-.66-2.1,6.89-6.5,11-7.7a21.6,21.6,0,0,1,.87-5c8.3-13.31,38.42-16.38,53-16.12,2.67.13,5.48.13,7.94,1.3,2.59,2.42,4.21,5.9,5.13,9.85a18,18,0,0,1,3.36-.84c1.63-.09,4.45-.8,6.59-.56,2.15-.24,5,.47,6.6.56a17.93,17.93,0,0,1,3.36.84c.93-4,2.55-7.43,5.14-9.85,2.46-1.17,5.28-1.17,7.94-1.3,14.61-.25,44.73,2.81,53,16.12a21.38,21.38,0,0,1,.87,5c4.1,1.2,11.65,5.6,11,7.7-1.06,2.87-7.5-.24-11.26-2.07a54.67,54.67,0,0,1-5.13,15.46c-4.78,9.49-14,16.81-24.49,18.67-15.54,3-32.38-7.25-36.21-22.75A73.55,73.55,0,0,1,260,189.49c-2-.46-4.1-1.4-6.14-1.32-.86-.12-2,0-3-.11s-2.12,0-3,.11c-2-.08-4.13.86-6.14,1.32a73.55,73.55,0,0,1-1.69,21.73C236.27,226.71,219.43,236.95,203.89,234Zm55.69,5.66a8.36,8.36,0,0,1-9.83,5.58c-4.47-1.13-9-5.12-8.84-10-.27-.43-.19-1.09.38-1.19,2.34.89,4.44,2.81,7.18,2.68a14.4,14.4,0,0,0,9.71-3.37,1.68,1.68,0,0,1,2.62-.29C261.68,235,260.21,237.66,259.58,239.63Zm-11.12,36.19c-1.93.13-13.82-2.26-18-5.16-1.22,1.73-2.66,3.09-3.7,1.43-1.51-1.76,5.95-8.64,5.81-4.88-.12.19-.29.49-.49.83.52.44,1,1,1.42,1.36,8.81,6.2,23.21,4.43,31.64-1.6.83-.51,1.4-1.53,2.45-1.57a1.81,1.81,0,0,1,1.19,3.19C262.94,273.76,255.81,276.52,248.46,275.82Z"/><path class="cls-3" d="M343.79,207.31c-.95,6.65-2.89,14.77-3,16.94-1,6.84-2.25,13.77-3.83,20.62a35.42,35.42,0,0,0,4.43-7.58c2.15-4.85.79-10.22,2.06-15.23.18-1.95,9.93-17.55,11.22-12.84-1,2.44-3,4.48-4,7,.69.23.78,1.12,1,1.72,1.07,4.53.18,9.23-.91,13.68-1.84,8.61-7.66,17.24-15.7,20.83-1,3.75-2.2,7.46-3.54,11.09a1.94,1.94,0,0,0,.52-.05c16.3-6.49,23.74-25.7,26.22-41.89C360.23,210.06,355.33,194.43,343.79,207.31Z"/><path class="cls-2" d="M349.69,218.21c-1.71,4-3.55,8.15-4.12,12.5-.72,6.41-3.77,12-7,17.5C348.51,242.05,350.75,229,349.69,218.21Z"/><path class="cls-4" d="M364.45,135.38c-.82,19.13-10,36.9-14.31,55.41-.13,1.4-1.85,5-2.47,7.8a13.3,13.3,0,0,0-3.37,2.32,9,9,0,0,0-.24-1.74,86.25,86.25,0,0,0,0-11.54c-.06-1.38-.11-2.39-.11-2.82-.34-5.57-1.81-10.92-2.73-16.4.84-1.59-.52-3-1.65-4-4.92-5.07-9.74-10.45-12.47-17.22a60.32,60.32,0,0,1-4.08-15.9,3.13,3.13,0,0,0-.95-2,2.1,2.1,0,0,0-3.27.73c-.54,1.25-.21,2.71-.06,4-1.72,2.36-3,2.73-5.07.45-3.25-3.14-4.94-7.41-6.13-11.73-1.48-5.24-2.45-10.85-3.42-16.27-.45-1.59-.71-6.83-3.37-5a6.26,6.26,0,0,0-.69,1.72c-1.27,1.16-2.54,3-3.25,3.68-5-12.85-19.26-4.79-27,.77-7.65,5.31-15.37,10.06-24.31,13.2-4.17,1-14.38,6.79-14.7-1a3.75,3.75,0,0,0-.17-1.18,32,32,0,0,0,7-10c.26-.75,1.29-2.39,0-2.69-1.16.21-1.85,1.46-2.77,2.11-5.74,5.5-11.43,11.2-18.72,14.68a64.43,64.43,0,0,1-15.52,5.5c-1.33.17-.73-2-.75-2.84,0-2.54,1.42-5.16,1.2-7.69a2,2,0,0,0-3.4-.6c-6.6,8.62-16.57,14-26.72,17.73-2,1.27-7.67,1.55-6.86,4.77.71,1.29,1.85,1.4,3.14,1.07-.32,10.6,0,21.56-7.14,30.43-3.05,5.76-1.87,13-2.24,19.36a72.46,72.46,0,0,0,.56,8.34,5.3,5.3,0,0,0-.37,1.16,10.62,10.62,0,0,0-4.19-2.19,10,10,0,0,0-2.77-.39,16.56,16.56,0,0,1-1.07-3.59c-3.18-12.08-5.72-24.29-8.25-36.52-2.9-13.09-4.38-26.37-2.56-39.8,5.59-36.64,61.17-86.79,99.7-80.25a124.09,124.09,0,0,1,40.9,13c2,1.16,4.49,3,6.75,4.19a3.28,3.28,0,0,0,2.82.37c1.81-1.16.06-3.35-1.1-4.3a39.6,39.6,0,0,0-7.16-5.27c-.86-4-3.52-8.38-1.23-12.23,13.86,6.51,23.88,19.15,31.55,32.15a165.69,165.69,0,0,1,8,15.54,3.47,3.47,0,0,0,2,2.15,1.92,1.92,0,0,0,2.15-.88c2.86,0,5.65,0,8.55.92C349.8,88.1,363.31,118.25,364.45,135.38Z"/><path class="cls-2" d="M152.47,217.43c-1,9.63,0,21,7.61,26.93a28,28,0,0,1-2.61-10.1c-.32-4.38-.25-9.18-2.73-12.95C154.06,220,153.28,218.7,152.47,217.43Z"/><path class="cls-5" d="M282,155.22a149.25,149.25,0,0,1,28.11,12.29C307.5,158.81,289.65,147.67,282,155.22Z"/><path class="cls-1" d="M290.55,229.59c15.7,1.14,28.83-11.92,31.91-26.73.83-4.84,2.52-11.08-1.7-14.9l.12.16c-11.64-6.89-25.59-8.87-38.92-9.79a82.53,82.53,0,0,0-9.27.19c-1.63.2-3.81,0-5,1.32-4.09,7.83-3.61,17-2.42,25.64C266.92,218.19,277.69,228.65,290.55,229.59ZM280,192.91c6.35-5.76,11.93,10.42,7.11,14.07-1.79,1-4.27-.07-5.65-1.36C279,202.21,277.57,196.64,280,192.91Z"/><path class="cls-3" d="M165.68,252.29a27,27,0,0,1-3.94-4.93c-10.63-6.32-12.38-21.06-11-32.67a49.39,49.39,0,0,1-3.29-5.61c.41-2.42,3.44-.41,4.4.62,10.77,8.87,4.5,20.52,10,31.25,1.48,2.34,3,4.86,4.71,7.08-1.93-7.31-3.55-14.71-5.18-22-.34-2.1-2.3-10.92-3.09-18.12l-.06-.09c-1.68-4.44-7.61-7.38-11.23-3.3-2.21,3.28-2.05,7.26-2.21,11,.84,15.5,4.24,34.23,18.28,43.18a53.68,53.68,0,0,0,8,3.94q-1.8-5.08-3.27-10.29A1.54,1.54,0,0,1,165.68,252.29Z"/><path class="cls-5" d="M191.76,167.5a149.09,149.09,0,0,1,28.1-12.29C212.19,147.67,194.33,158.81,191.76,167.5Z"/><path class="cls-6" d="M367,385.25c-2.58,6.49-4.17,13.35-6,20.1-4.34,16.68-7.8,33.66-9,50.89-6.56,1.85-13.15,3.57-19.75,5.14-10.51,2.54-21.15,4.75-31.85,6.53-4.86.8-9.74,1.53-14.61,2.15.47-.86.75-1.87,1.23-2.67a100,100,0,0,1,10.17-18.59c11.09-16.14,18.44-23.75,17.8-34.62-.3-5.16-2.41-11.09-6.77-19-.95-1.72-2-3.52-3.18-5.46,23.51-21.79,22.46-31,10.77-50.51a343.61,343.61,0,0,1,41,35.1Q362.1,379.61,367,385.25Z"/><path class="cls-6" d="M368.59,387.11c-4,9.83-5.72,20.4-8.21,30.67a195.4,195.4,0,0,0-4.84,29.15c-.27,2.84-.49,5.68-.72,8.52a263.21,263.21,0,0,0,38.09-14c1.79-.57,3.89-2.7,5.76-2.82-7-16.45-15.1-32.66-26.12-46.8C371.27,390.2,369.92,388.67,368.59,387.11Z"/><path class="cls-6" d="M295.45,338.74c2.37-.77,1.21,5.62,1,6.85-3.49,19-6.73,38.08-9.33,57.24l.09-.12c9.31-14.08,26.06-23.39,31.39-39.81,1-4.76-1.34-9.13-3.34-13.25a228.7,228.7,0,0,0-13-22.73c-2-3.14-3.77-5.78-5.94-8.59C296,325.12,295.67,331.94,295.45,338.74Z"/><path class="cls-3" d="M291.44,320.95c-.11,5.48,0,11,.39,16.46a2.76,2.76,0,0,0-1.89,1.44c-7,8.08-15.67,15.43-26,18.81-15.95,4.26-34-.56-46.42-11.39-.95-.56-3.87-4.17-5.87-5.82a71.77,71.77,0,0,0,0-19,2.63,2.63,0,0,0,0-.41c-.37-1.46-.54-5.65-1.14-9.31a93.39,93.39,0,0,0,44.75,12.53A2.89,2.89,0,0,0,257,324c10.85.86,23.77-5.05,34.86-12.38C291.68,314.72,291.53,317.83,291.44,320.95Z"/><path class="cls-6" d="M289.64,454.31c6.34-12,16.28-22.52,20.06-35.69,1.39-9.31-4.84-17.33-8.41-25.47-5.45,5.3-10.66,10.39-15.06,16.45-1.81,14.28-3.25,28.59-4.09,43q-.45,9-.63,18l1.4-.17a3.93,3.93,0,0,1,.46-2.42A84.11,84.11,0,0,1,289.64,454.31Z"/><path class="cls-6" d="M132.47,381.71a165.33,165.33,0,0,0-10.16,13.13c-8.24,12-14.19,25.15-19.6,38.56-.23.61-.49,1.32-.8,2l.43.26a162.35,162.35,0,0,0,16.59,9.48,248.59,248.59,0,0,0,29,11.68c-2.44-11.17-3.9-22.62-6.19-33.84C138.84,409.2,135.47,395.48,132.47,381.71Z"/><path class="cls-6" d="M205,392.7c4.08,5,8.07,10.08,11.69,15.45q-1.66-10.16-3.46-20.29c-2.26-14.92-6.82-29.59-7.64-44.69,0-2.31.87-3.59,1.8-3.07,0-.72.06-1.44.08-2.16a123.35,123.35,0,0,0-1.06-19.7,11.27,11.27,0,0,0-.86,1.08c-4.87,6.79-8.71,14.09-12.61,21.43-3.42,7.26-8,14.22-10.08,22C182.25,373.31,199.11,384.17,205,392.7Z"/><path class="cls-6" d="M221.08,471.7q-5.87-.55-11.73-1.29a323.53,323.53,0,0,1-58-12.44c-5.29-26-11.22-52-17.6-77.72A186.14,186.14,0,0,1,149,364.71a254.45,254.45,0,0,1,41.76-30.56c-1.55,2.86-3.05,5.76-4.56,8.58-2.75,6-7,11.69-8.17,18.31-.75,12.1,10,21.6,19.28,30.11a40.73,40.73,0,0,0-3.46,4.75c-1,1.55-1.93,3.09-3,4.51a38.29,38.29,0,0,0-5.05,10.47,14.45,14.45,0,0,0,.67,10.1C196.23,439,212.55,452.89,221.08,471.7Z"/><path class="cls-7" d="M291.72,348.41c.33-1,.59-2,.85-3a4.94,4.94,0,0,0-.12-1c-.06-.56-.11-1.12-.16-1.68-1.71,2-4.14,4.06-4.91,5.19-9.31,10-22,17.19-36,16.24-15-.45-32.29-6.78-40.36-20.11q-.39,2-.93,4c7.87,35.52,14.4,71.58,17.49,107.84.31,5.18.64,10.33.84,15.52a2.47,2.47,0,0,1-.17,1,306,306,0,0,0,48.47-1.23c-.09-28.83,3.49-57.56,8-86C286.64,372.82,288.53,360.48,291.72,348.41Z"/><path class="cls-6" d="M204.92,398.45c-1.41-1.54-3-3.09-4.72-4.68C187,416.31,186.07,415,202.8,437.25c1.26,1.4,16.46,23.4,21,33.72A505.65,505.65,0,0,0,218,416.33C214.09,410.05,210.37,403.61,204.92,398.45Z"/><path class="cls-8" d="M258.17,233.36a14.4,14.4,0,0,1-9.71,3.37c-2.74.13-4.84-1.79-7.18-2.68-.57.09-.65.76-.38,1.19-.17,4.85,4.37,8.84,8.84,10a8.36,8.36,0,0,0,9.83-5.58c.63-2,2.1-4.6,1.22-6.57A1.68,1.68,0,0,0,258.17,233.36Zm-7.2,9.86c-3.28-.33-5.8-2.94-7.77-5.4a1.73,1.73,0,0,1-.25-.59,13.47,13.47,0,0,0,15.57-.78C257.67,239.9,254.8,243.35,251,243.22Z"/><path class="cls-8" d="M267.57,266.22c-1.05,0-1.62,1.06-2.45,1.57-8.43,6-22.82,7.8-31.64,1.6-.43-.38-.9-.91-1.42-1.36.2-.35.37-.64.49-.83.14-3.76-7.32,3.12-5.81,4.88,1,1.65,2.48.3,3.7-1.43,4.19,2.91,16.08,5.29,18,5.16,7.35.7,14.48-2.05,20.3-6.41A1.81,1.81,0,0,0,267.57,266.22Z"/><path class="cls-8" d="M214.72,207c1.79,1,4.27-.07,5.65-1.36,2.43-3.41,3.89-9,1.46-12.71C215.48,187.15,209.9,203.33,214.72,207Z"/><path class="cls-8" d="M189.37,170.48a1.06,1.06,0,0,0,.65.19c2.9-.6,5.54-2.12,8.32-3.14,8.28-3.71,17-6.35,25.46-9.36,2.42-2.52-.91-6.35-3.22-7.72-6.17-3.44-13.7-.73-19.44,2.42-4.87,2.62-8.4,7.46-11.09,12.16-.7,1.64-1.91,3.87-.67,5.45Zm30.49-15.26a149.09,149.09,0,0,0-28.1,12.29C194.33,158.81,212.19,147.67,219.86,155.22Z"/><path class="cls-8" d="M240.1,211.22a73.55,73.55,0,0,0,1.69-21.73c2-.46,4.1-1.4,6.14-1.32.86-.12,2,0,3-.11s2.13,0,3,.11c2-.08,4.13.86,6.14,1.32a73.55,73.55,0,0,0,1.69,21.73c3.83,15.49,20.67,25.72,36.21,22.75,10.54-1.86,19.71-9.17,24.49-18.67a54.67,54.67,0,0,0,5.13-15.46c3.76,1.84,10.2,4.94,11.26,2.07.66-2.1-6.89-6.5-11-7.7a21.38,21.38,0,0,0-.87-5c-8.3-13.31-38.41-16.38-53-16.12-2.67.13-5.48.13-7.94,1.3-2.59,2.42-4.21,5.9-5.14,9.85a17.93,17.93,0,0,0-3.36-.84c-1.63-.09-4.45-.8-6.6-.56-2.15-.24-5,.47-6.59.56a18,18,0,0,0-3.36.84c-.93-4-2.54-7.43-5.13-9.85-2.47-1.17-5.28-1.17-7.94-1.3-14.61-.25-44.73,2.81-53,16.12a21.6,21.6,0,0,0-.87,5c-4.1,1.2-11.65,5.6-11,7.7,1.06,2.87,7.5-.24,11.26-2.07a54.82,54.82,0,0,0,5.14,15.46c4.78,9.49,14,16.81,24.49,18.67C219.43,236.95,236.27,226.71,240.1,211.22Zm27.61-31.38c1.17-1.35,3.34-1.12,5-1.32a82.53,82.53,0,0,1,9.27-.19c13.33.92,27.28,2.9,38.92,9.79l-.12-.16c4.22,3.81,2.54,10.06,1.7,14.9-3.09,14.81-16.21,27.87-31.91,26.73-12.86-.94-23.62-11.4-25.26-24.1C264.1,196.81,263.62,187.67,267.71,179.85Zm-56.43,49.74c-15.7,1.14-28.83-11.92-31.91-26.73-.83-4.84-2.52-11.08,1.7-14.9l-.12.16c11.64-6.89,25.58-8.87,38.92-9.79a82.54,82.54,0,0,1,9.27.19c1.63.2,3.81,0,5,1.32,4.09,7.83,3.61,17,2.43,25.64C234.91,218.19,224.14,228.65,211.29,229.59Z"/><path class="cls-8" d="M287.11,207c4.82-3.65-.77-19.84-7.11-14.07-2.43,3.73-1,9.3,1.46,12.71C282.84,206.91,285.32,208,287.11,207Z"/><path class="cls-8" d="M303.5,167.53c2.77,1,5.42,2.54,8.32,3.14a1.07,1.07,0,0,0,.64-.19h0c1.24-1.58,0-3.81-.67-5.45-2.69-4.71-6.22-9.54-11.09-12.16-5.73-3.15-13.26-5.87-19.44-2.42-2.31,1.38-5.63,5.21-3.22,7.72C286.54,161.19,295.22,163.82,303.5,167.53Zm6.58,0A149.25,149.25,0,0,0,282,155.22C289.65,147.67,307.5,158.81,310.08,167.5Z"/><path class="cls-8" d="M189.5,164.9l-.07.15h0Z"/><path class="cls-8" d="M223.72,477.19l.35,0H224Z"/><path class="cls-8" d="M395.64,419.4a172.33,172.33,0,0,0-34.49-48.16c-15.2-14.9-31.38-29.28-49.29-40.8a8.25,8.25,0,0,0-1.82-.57c-1.65-2.62-3.4-5.4-5.25-8.41-1.22-1.55-5.23-8-8.19-9,.07-1.41.14-2.82.2-4.24A124.49,124.49,0,0,0,310,297.07c9.19-8.47,15.53-18.8,20.11-30a5.54,5.54,0,0,0,2.25.61c9.31-1.34,17.57-10.14,22-18.08,6.38-12.57,16-40.16,2.7-50.63a8.8,8.8,0,0,0-5.15-1.45c1-3.15,2-6.33,3.23-9.43,6.39-18.33,12.26-37.15,13.86-56.62,0-8.94-4.22-17.29-8.07-25.16-7-13.3-17.65-28.88-34.37-28.8a9.61,9.61,0,0,0-3,.6c-2.35-8.65-14.24-26.15-16.06-28.36-6.73-8.68-14.91-16.54-24.91-21.31-3-1.53-6.52.33-7.64,3.35-1.29,3.45-.71,7.16.57,10.6-6.1-2.71-12.65-4.64-18.87-6.73-17.16-5.35-36.23-6.19-52.53,2.31-28.55,12.61-52.57,36.34-65.94,64.51-10.78,25.41,1.39,69,9.7,95.49a9.92,9.92,0,0,0-2.65,1.25c-9.29,7-5,26-2.92,35.92,3.91,16.45,13.51,29.53,30.63,33.46l.36.08a89.37,89.37,0,0,0,13.81,23.64,84.55,84.55,0,0,0,18.08,16.2q.35,2.54.7,5.09a13.47,13.47,0,0,0-2.35,1.86,71,71,0,0,0-9,12.1c-1.14.37-2.29.91-3,1.18-13.71,6-25.56,15.5-37.13,24.88-20.78,16.74-38.72,37.38-49.63,61.91-2.81,6.14-5.31,12.43-8,18.63a2.61,2.61,0,0,0,1.38,3.39,2.67,2.67,0,0,0,1.19.19c2.07,1.8,4.87,3.61,6.08,4.48,33.24,21.17,79.48,31.18,118.52,35,36.28,2.62,72.76-2.22,108.08-10.44,21-5,42-10.55,61.41-20.11,2-1.47,7.92-3,7.63-6a2.31,2.31,0,0,0,2.25-1.73c.29-1.3-.34-2.55-.75-3.76Q399.37,427.16,395.64,419.4Zm-93.37-92.49a228.7,228.7,0,0,1,13,22.73c2,4.12,4.38,8.5,3.34,13.25-5.33,16.43-22.09,25.73-31.39,39.81l-.09.12c2.6-19.16,5.84-38.24,9.33-57.24.21-1.23,1.36-7.62-1-6.85.23-6.81.54-13.62.88-20.43C298.5,321.14,300.25,323.78,302.27,326.91Zm56-105.34c-2.48,16.19-9.92,35.4-26.22,41.89a1.94,1.94,0,0,1-.52.05c1.34-3.63,2.5-7.34,3.54-11.09,8-3.59,13.86-12.22,15.7-20.83,1.09-4.44,2-9.14.91-13.68-.24-.6-.34-1.5-1-1.72,1-2.48,3-4.52,4-7-1.29-4.71-11,10.89-11.22,12.84-1.27,5,.09,10.38-2.06,15.23a35.42,35.42,0,0,1-4.43,7.58c1.57-6.85,2.79-13.78,3.83-20.62.09-2.18,2-10.29,3-16.94C355.33,194.43,360.23,210.06,358.27,221.57ZM338.54,248.2c3.26-5.45,6.31-11.08,7-17.5.57-4.35,2.41-8.47,4.12-12.5C350.75,229,348.51,242.05,338.54,248.2ZM141.84,157.35c-2.91-13.08-4.38-26.38-2.56-39.8C144.86,80.9,200.45,30.75,239,37.3a124.1,124.1,0,0,1,40.89,13c2,1.16,4.5,3,6.75,4.19a3.26,3.26,0,0,0,2.81.35c1.81-1.14.06-3.33-1.09-4.29a39.85,39.85,0,0,0-7.16-5.27c-.86-4-3.52-8.38-1.23-12.23,13.86,6.53,23.9,19.16,31.56,32.16a167.52,167.52,0,0,1,8,15.55,3.39,3.39,0,0,0,1.95,2.14,1.91,1.91,0,0,0,2.15-.87c2.85,0,5.64,0,8.55.93,17.6,5.15,31.11,35.31,32.27,52.43-.82,19.14-10,36.9-14.33,55.41-.12,1.41-1.84,5-2.47,7.81a13.55,13.55,0,0,0-3.38,2.31,7.85,7.85,0,0,0-.23-1.74c.55-5.08-.1-12.94-.08-14.34-.33-5.58-1.81-10.92-2.74-16.41.84-1.58-.5-3-1.65-3.95-4.92-5.07-9.72-10.44-12.45-17.21a60.8,60.8,0,0,1-4.09-15.9,3.12,3.12,0,0,0-.94-2,2.1,2.1,0,0,0-3.26.72c-.55,1.25-.22,2.72-.07,4-1.73,2.36-3,2.73-5.06.44-3.25-3.13-5-7.4-6.13-11.73-1.48-5.25-2.46-10.85-3.43-16.27-.45-1.59-.71-6.83-3.37-5a6.3,6.3,0,0,0-.67,1.72c-1.28,1.17-2.55,3-3.26,3.67-5-12.84-19.26-4.78-27,.79-7.64,5.31-15.36,10-24.31,13.18-4.17,1-14.38,6.8-14.69-1a3.91,3.91,0,0,0-.19-1.19,31.32,31.32,0,0,0,7-10c.26-.76,1.3-2.38,0-2.69-1.16.21-1.83,1.45-2.77,2.1-5.74,5.51-11.43,11.21-18.7,14.68a63.91,63.91,0,0,1-15.53,5.49c-1.32.19-.72-2-.75-2.82,0-2.54,1.42-5.16,1.19-7.7a2,2,0,0,0-3.38-.61v0c-6.57,8.64-16.56,14-26.72,17.76-2,1.26-7.66,1.54-6.84,4.76.69,1.29,1.85,1.41,3.13,1.09-.32,10.59,0,21.54-7.13,30.42-3.06,5.76-1.88,13-2.23,19.36a69.12,69.12,0,0,0,.56,8.34,4.59,4.59,0,0,0-.37,1.16,10.94,10.94,0,0,0-7-2.56,19.1,19.1,0,0,1-1.07-3.6C146.91,181.78,144.37,169.58,141.84,157.35ZM163,258.75c-14-9-17.43-27.68-18.28-43.18.16-3.76,0-7.74,2.21-11,3.61-4.09,9.55-1.14,11.23,3.3l.06.09c.8,7.2,2.75,16,3.09,18.12,1.64,7.25,3.25,14.65,5.18,22-1.73-2.22-3.22-4.73-4.71-7.08-5.5-10.73.76-22.38-10-31.25-1-1-4-3-4.4-.62a49.39,49.39,0,0,0,3.29,5.61c-1.34,11.61.4,26.36,11,32.67a27,27,0,0,0,3.94,4.93,1.54,1.54,0,0,0,2.05.11q1.48,5.21,3.27,10.29A53.68,53.68,0,0,1,163,258.75Zm-3-14.39c-7.58-5.95-8.56-17.3-7.61-26.93.81,1.27,1.59,2.55,2.27,3.88,2.48,3.77,2.41,8.56,2.73,12.95A28,28,0,0,0,160.08,244.36Zm35.43,49.57c-18.46-19-23.87-45.66-29.42-70.87-1.57-7.42-2.6-15-4.65-22.26-.65-7.93-1-16,.63-23.91,1.8-5.15,5-9.32,7.6-14.21,3.14-7,2.71-15.33,1.78-22.84a3.28,3.28,0,0,0-.1-.66,5.61,5.61,0,0,1,.8-.22,64.36,64.36,0,0,0,23.55-13.85c-2.27,15.43,19.82,3.74,26.14.28a49.19,49.19,0,0,0,5.31-3.65,6.85,6.85,0,0,0,5.48,5.88c12.17.74,23.82-5.76,33.8-12.11,6.32-4,12.09-9.44,19.52-11.16,3.36-.84,6,1.4,7.49,4.25,1,2.3,2.81,5.23,5.11,2.15l1.43-2c0,.49.06,1,.07,1.44.73,6.6,1.77,13.4,4.79,19.38,2.42,5,9,14.61,14.47,7.69,1.72,12.65,9.13,23.21,18.18,31.83,2.3,10.61,2.56,21.91,3,32.63-.1.3-.2.6-.31.87a244.71,244.71,0,0,0-5.58,26.83c-3.38,19.61-8,39.86-20.9,55.66-13.77,16.42-33.46,31.51-55.49,33.89l-1.35.1,0,0a8.45,8.45,0,0,0-2.68-.17A87.91,87.91,0,0,1,195.51,293.94Zm96.32,43.47a2.77,2.77,0,0,0-1.9,1.45c-7,8.07-15.66,15.43-26,18.8-15.94,4.26-34-.55-46.42-11.39-.94-.56-3.86-4.17-5.85-5.83a72.7,72.7,0,0,0-.09-19.36c-.38-1.46-.54-5.65-1.15-9.31a93.24,93.24,0,0,0,44.75,12.53A2.86,2.86,0,0,0,257,324c10.87.86,23.78-5,34.86-12.38A186.15,186.15,0,0,0,291.84,337.41ZM193,340.73c3.9-7.34,7.74-14.63,12.61-21.43a11.27,11.27,0,0,1,.86-1.08,123.35,123.35,0,0,1,1.06,19.7c0,.72,0,1.44-.08,2.16-.94-.52-1.77.76-1.8,3.07.82,15.1,5.38,29.77,7.64,44.69Q215,398,216.72,408.15c-3.61-5.36-7.61-10.43-11.69-15.45-5.93-8.53-22.78-19.39-22.14-30C185,354.95,189.56,348,193,340.73ZM118.92,445.15a162.35,162.35,0,0,1-16.59-9.48l-.43-.26c.31-.68.56-1.39.8-2,5.41-13.41,11.36-26.58,19.6-38.56a165.33,165.33,0,0,1,10.16-13.13c3,13.77,6.37,27.49,9.3,41.28,2.29,11.23,3.75,22.67,6.19,33.84A248.59,248.59,0,0,1,118.92,445.15ZM151.33,458c-5.28-26-11.22-52-17.61-77.71,16.1-18.44,36.08-33.62,57-46.1-1.55,2.86-3.05,5.75-4.55,8.58-2.76,6-7,11.69-8.16,18.3-.75,12.1,9.94,21.6,19.27,30.1-2.46,2.79-4.27,6.3-6.42,9.27-3.91,6.05-7.72,13.4-4.39,20.56,9.72,18.09,26,31.93,34.56,50.73C197.5,469.45,173.93,465.16,151.33,458Zm51.47-20.7C186.07,415,187,416.31,200.2,393.77c1.7,1.58,3.31,3.14,4.72,4.68,5.45,5.15,9.17,11.6,13.09,17.88A505.65,505.65,0,0,1,223.85,471C219.25,460.65,204.06,438.65,202.8,437.25Zm25.47,35.07a2.47,2.47,0,0,0,.17-1c-.2-5.18-.54-10.34-.84-15.52C224.51,419.58,218,383.53,210.11,348q.54-2,.93-4c8.07,13.33,25.34,19.66,40.36,20.11,14,1,26.67-6.24,36-16.24.77-1.13,3.2-3.16,4.91-5.19.06.56.1,1.12.16,1.68a4.94,4.94,0,0,1,.12,1c-.26,1-.52,2.05-.85,3-3.19,12.07-5.07,24.4-7,36.72-4.51,28.39-8.09,57.13-8,86A306,306,0,0,1,228.27,472.32Zm54.64-1.91-1.4.17q.17-9,.63-18c.84-14.36,2.27-28.68,4.09-43,4.4-6.06,9.6-11.15,15.06-16.45,3.57,8.14,9.8,16.16,8.41,25.47-3.78,13.17-13.71,23.7-20.06,35.69A84.11,84.11,0,0,0,283.36,468,3.93,3.93,0,0,0,282.9,470.41Zm49.39-9a428.21,428.21,0,0,1-46.46,8.67c.46-.85.74-1.87,1.23-2.66a98.3,98.3,0,0,1,10.17-18.59c17.5-25.49,25.67-29.67,7.84-59.11,23.51-21.78,22.45-31,10.77-50.5,18.48,13.67,36.07,28.72,51.19,46.06-2.59,6.49-4.18,13.35-6,20.09-4.34,16.69-7.8,33.67-9,50.9Q342.21,459,332.29,461.39Zm60.63-20a263.21,263.21,0,0,1-38.09,14c.23-2.84.45-5.68.72-8.52a195.4,195.4,0,0,1,4.84-29.15c2.49-10.27,4.23-20.85,8.21-30.67,1.33,1.56,2.68,3.09,4,4.68,11,14.15,19.14,30.35,26.12,46.8C396.81,438.71,394.71,440.84,392.91,441.41Z"/><path class="cls-5" d="M358.48,144.39a103.19,103.19,0,0,1-4.34,12.72,36.4,36.4,0,0,0-9.61-16c6,9.26,4.81,21.26,2.75,32.07-.92,4.86-2,9.67-3.2,14.46-.06-1.38-.11-2.39-.11-2.82-.34-5.57-1.81-10.92-2.73-16.4.84-1.59-.52-3-1.65-4-4.92-5.07-9.74-10.45-12.47-17.22a60.32,60.32,0,0,1-4.08-15.9,3.13,3.13,0,0,0-.95-2,2.1,2.1,0,0,0-3.27.73c-.54,1.25-.21,2.71-.06,4-1.72,2.36-3,2.73-5.07.45-3.25-3.14-4.94-7.41-6.13-11.73-1.48-5.24-2.45-10.85-3.42-16.27-.45-1.59-.71-6.83-3.37-5a6.26,6.26,0,0,0-.69,1.72c-1.27,1.16-2.54,3-3.25,3.68-5-12.85-19.26-4.79-27,.77-7.65,5.31-15.37,10.06-24.31,13.2-4.17,1-14.38,6.79-14.7-1a3.75,3.75,0,0,0-.17-1.18,32,32,0,0,0,7-10c.26-.75,1.29-2.39,0-2.69-1.16.21-1.85,1.46-2.77,2.11-5.74,5.5-11.43,11.2-18.72,14.68a64.43,64.43,0,0,1-15.52,5.5c-1.33.17-.73-2-.75-2.84,0-2.54,1.42-5.16,1.2-7.69a2,2,0,0,0-3.4-.6c-6.6,8.62-16.57,14-26.72,17.73-2,1.27-7.67,1.55-6.86,4.77.71,1.29,1.85,1.4,3.14,1.07-.32,10.6,0,21.56-7.14,30.43-3.05,5.76-1.87,13-2.24,19.36a72.46,72.46,0,0,0,.56,8.34,5.3,5.3,0,0,0-.37,1.16,10.62,10.62,0,0,0-4.19-2.19c-3-18.4-5.63-36.86-6-55.47-.11-5.61,0-11.33,1.7-16.68,3.22-10.25,11.65-17.86,19.71-25a35.87,35.87,0,0,1-10.53,4.34,2.62,2.62,0,0,1-2.17-.15,2.33,2.33,0,0,1-.75-1.29c-1.35-4.88,2.06-9.69,5.52-13.39,16.85-18.1,39.76-30.93,64.31-33.94s50.57,4.3,68.78,21.06a73,73,0,0,1-2.26-14.92c-.11-2.32.82-5.52,3.12-5.22a4.2,4.2,0,0,1,2.43,1.85,200.36,200.36,0,0,1,19,29.21c6.28-1.74,12.42,1.1,17.69,4.94s9.16,9.26,12.68,14.74c3.2,4.94,6.17,10.06,8.92,15.26a31.21,31.21,0,0,1,3.68,9.65C360.28,136.74,359.49,140.63,358.48,144.39Z"/><path class="cls-2" d="M291.9,311.62c-.21,3.09-.37,6.21-.45,9.33-8.85,7-22.59,14.61-40.13,14.61-15.43,0-29.38-6.9-39.74-14.08a2.63,2.63,0,0,0,0-.41c-.37-1.46-.54-5.65-1.14-9.31a93.39,93.39,0,0,0,44.75,12.53A2.89,2.89,0,0,0,257,324C267.89,324.86,280.81,318.95,291.9,311.62Z"/><path class="cls-9" d="M193.87,395.89c-8-10-18.31-23.08-22.07-28.09-3.35-4.47-13.65-4.3-22.78-3.09a254.45,254.45,0,0,1,41.76-30.56c-1.55,2.86-3.05,5.76-4.56,8.58-2.75,6-7,11.69-8.17,18.31-.75,12.1,10,21.6,19.28,30.11A40.73,40.73,0,0,0,193.87,395.89Z"/><path class="cls-9" d="M221.08,471.7q-5.87-.55-11.73-1.29c-8.42-14-18.87-31.14-22.5-36-5.31-7.07-2.24-19.43-1-23.56a14.45,14.45,0,0,0,.67,10.1C196.23,439,212.55,452.89,221.08,471.7Z"/><path class="cls-9" d="M315,414.18c2.08,6.56,4.13,14.57,2.94,18.1-1.31,3.91-10.47,22-17.52,35.63-4.86.8-9.74,1.53-14.61,2.15.47-.86.75-1.87,1.23-2.67a100,100,0,0,1,10.17-18.59C308.29,432.67,315.64,425.06,315,414.18Z"/><path class="cls-9" d="M356.85,374.29c-7-3.46-20.68-9.67-23.86-6.49-2.45,2.45-14.7,16.1-24.76,27.36-.95-1.72-2-3.52-3.18-5.46,23.51-21.79,22.46-31,10.77-50.51A343.61,343.61,0,0,1,356.85,374.29Z"/></svg>