<svg id="Layer_1" data-name="Layer 1" xmlns="http://www.w3.org/2000/svg" viewBox="0 0 500 500"><defs><style>.cls-1{fill:#f59495;}.cls-2{fill:#b86041;}.cls-3{fill:#fddecc;}.cls-4{fill:#d8855b;}.cls-5{fill:#fff;}.cls-6{fill:#a3cd76;}.cls-7{fill:#270d3d;}.cls-8{fill:#d9eee9;}.cls-9{fill:#79af5d;}</style></defs><title>male02</title><path class="cls-1" d="M156.7,241.38a50.57,50.57,0,0,0-7.44-12.09,5.42,5.42,0,0,0,0,1.44c.34,7.94,3.51,16.71,10.08,21.31a14.14,14.14,0,0,1-.76-1.49C157.38,247.65,157.54,244.37,156.7,241.38Z"/><path class="cls-2" d="M205.44,171.66c-5.35,1.62-9.08,6.89-10.1,12.14,6.37-5.72,15.29-7.18,23.5-8.33C217.6,170.08,209.63,170.71,205.44,171.66Z"/><path class="cls-1" d="M249.13,260.94a11.16,11.16,0,0,0,2.49.09c3.85-.43,8.18-3,8.7-7.11A24.94,24.94,0,0,1,241.44,255C243.28,257.71,245.8,260.34,249.13,260.94Z"/><path class="cls-2" d="M298.31,171.66c-4.19-.94-12.15-1.58-13.39,3.81,8.2,1.15,17.13,2.61,23.49,8.33C307.39,178.55,303.67,173.28,298.31,171.66Z"/><path class="cls-1" d="M342.88,244.92c-.54,6.14-4.39,11.18-9,15,12.24-5.45,16.89-19.53,19.12-31.77C349.39,233.58,343.65,238.19,342.88,244.92Z"/><path class="cls-3" d="M164.28,257.49a3.38,3.38,0,0,1-1.61-.62c-11-6.5-14.43-17.07-15.15-29.23a1,1,0,0,1,.06-.37c-1.48-1.71-3-3.38-4.6-5-1.41-3,5,.63,5.78,1.32,4.06,3.33,8.09,7.35,10.05,12.31.68,1.86.28,4,.23,5.85.13,7.31,5.69,12.12,11.62,15.37-2.36-6.64-4.76-13.58-7.39-20.75-.8-2.91-3.51-9-5.05-14.3-5-6.52-13.78-10.24-18.32-.68-1.53,5,.17,10.23,1.64,15,5.08,14.4,14.59,33.32,32.43,31.46.2,0,.39-.1.58-.15q-1.24-3.26-2.46-6.65A22,22,0,0,1,164.28,257.49Z"/><path class="cls-3" d="M344.45,219.5c-3.71,11.12-8,22.2-12.34,33-.72,1.66-1.33,3.36-2,5.05l-.42,1.26a47.35,47.35,0,0,0,5-4.41c3.39-3.65,5.83-8.29,5.54-13.33a7.59,7.59,0,0,1,1.76-6.41c4.4-5.46,8.83-12.18,15.58-14.71,3.26.84-2.39,4.6-3,6.08-1.94,15.31-8.46,33.54-25.24,37.35a2.37,2.37,0,0,1-1.33.42q-.85,2.5-1.73,5c19-.47,29.47-21.24,33.63-37.46,3.41-11.73-3.39-23.46-14.71-12.48A4.06,4.06,0,0,1,344.45,219.5Z"/><path class="cls-4" d="M357.62,110.19a53.92,53.92,0,0,1,5.53,15.86c.51,7.66-1.3,15.39-2.2,23-1.88,12.81-3.74,25.49-6.51,38.19-1.64,7.77-3.52,15.52-5.91,23.1a12.39,12.39,0,0,0-1.56.85c.13-1.24-.15-2.31-1.71-1.9a5,5,0,0,0-.53.64,35.4,35.4,0,0,0-1.73-8.58c-2.43-7.49-7-14.35-12-20.47-1.58-2.16-3.48-4.1-4.72-6.49a21.77,21.77,0,0,1,1.64-4.48c8.48-18.15,8-41.31-6.08-56.55-.26-.23-.49-.51-.75-.79,1-.23,1.9-.47,2.84-.73a47.17,47.17,0,0,1,11.08-.88.53.53,0,0,0,.6-.47.54.54,0,0,0-.45-.6,50.65,50.65,0,0,0-19-.77c-1.47-.88-3.52.34-5.25,1.07a49.13,49.13,0,0,0-7.64,2.67c-15.67,4.74-36.29,6.85-56.91,6.51-2.63-.73-5.25-1.52-7.83-2.28-15-5.89-31.49-19.49-27.8-37.47.06-.09.15-.32.23-.43a.53.53,0,0,0-.92-.53,20.47,20.47,0,0,0-3.05,9.16c-.66,15.16,12.45,25.55,26.07,31-16.2-1.11-31.72-3.71-44.06-7.77-7.39-5.1-9.86-12.79-7-27.92v0q.74-3.68,1.86-8a11,11,0,0,1,.66-2.39.54.54,0,0,0-1-.43,2.62,2.62,0,0,1-.36.68c-5.23,7.17-8.43,17.83-6.64,27a21.63,21.63,0,0,0,3.27,8A7.92,7.92,0,0,0,177,110.6a48.3,48.3,0,0,0-6.9,11.89c-7.49,16.52-6.34,34,1.94,50-8.6,12-17.68,26.58-15.09,41.46q-.48-.42-1-.77a14.6,14.6,0,0,0-3.78-2c-.3-.11-.6-.19-.9-.28a130,130,0,0,1-5.83-13.21c-6.26-19.66-13.11-39.81-13-60.76.36-14.15,16.5-27.13,27.75-34.09,1.94-1.39,4.55-2.07,6.08-3.95a1.37,1.37,0,0,0-.23-1.77c.88-.79,1.28-2.39,1.69-3.42,1.2-3.91,2.37-7.81,3.84-11.61,4.7-12.64,12.45-24.93,24.81-31.42,29-14.09,77-7.13,105.63,5.93A126.61,126.61,0,0,1,328.7,74c11.1,9.95,22.22,21.48,37.47,24.74-.81,2.65-3.22,4.33-5.57,5.81a6.39,6.39,0,0,0-2.56,1.84C357.09,107,356.66,108.29,357.62,110.19Z"/><path class="cls-5" d="M151.4,468.88q-6.95-2.56-13.68-5.66a166.68,166.68,0,0,1-18-9.71,175.75,175.75,0,0,1-15.95-10.8,22.93,22.93,0,0,0,1.15-2.56c3.07-7.6,5.85-15.35,9.69-22.61a160.56,160.56,0,0,1,12.74-19.38c1.45,2.16,3.33,4.33,3.84,5.7a172.2,172.2,0,0,1,8.58,19.36A240,240,0,0,1,151.4,468.88Z"/><path class="cls-1" d="M261.94,336.19c9.54-3.13,16.87-10.19,23.8-17.14a79.23,79.23,0,0,1-33.8,7.87,2.71,2.71,0,0,1-1.38.23c-14.13-.68-25.38-3.19-34.59-7.23.58.82,1.08,1.69,1.56,2.35C226.68,337.56,245.77,342,261.94,336.19Z"/><path class="cls-6" d="M367,395.55c-3.35,4.29-5.68,9.31-8,14.2-.79,1.69-1.56,3.37-2.28,5.08A121.39,121.39,0,0,0,347,465.59q-7.4,2.4-14.9,4.46c-2.35.66-4.72,1.28-7.09,1.88-35.48,9.56-72.45,12.42-109,9.54a231.92,231.92,0,0,1-50.42-8q-5.57-1.57-11-3.46a210.75,210.75,0,0,0-5.32-29.78,159.06,159.06,0,0,0-5.85-18.94,199.51,199.51,0,0,0-8-18.47c-1.3-2-2.65-6.23-4.68-8.75,17-20.92,38.92-38,62.51-51.11-.13,4.33,1.71,10.84,2.37,12.74,7.07,22.05,29.29,35.54,51.81,36.27,21.45.83,46.56-8.75,54.44-30.25.85-2.37,5-12.57,5.85-19.23C330.3,355.22,350.73,374,367,395.55Z"/><path class="cls-3" d="M286.54,322.57a10.21,10.21,0,0,0-1.11,1.27c-10,11.49-24.84,18.29-40.17,16.67-10.93-1-22.44-7.45-30.13-15.68a106.56,106.56,0,0,1-.24,24.91c7.6,13.48,24.08,20.93,39.27,20.53,11.77-.88,22-8.09,30.06-16.26.23-.25.42-.52.63-.78,0-.63,0-1.28,0-1.9.25-5.63.17-11.28.58-16.9C285.73,330.49,285.95,326.49,286.54,322.57Z"/><path class="cls-5" d="M395,445.93a2.14,2.14,0,0,0-.94.26A163.1,163.1,0,0,1,377.46,454q-8.9,3.91-18,7.24c-3,1.13-6,2.18-9.05,3.2.28-4.18.51-8.35,1-12.51a134.51,134.51,0,0,1,9.5-36.12,167.5,167.5,0,0,1,8.28-17.33A204.68,204.68,0,0,1,395,445.93Z"/><path class="cls-5" d="M199.93,354.3c8,22.47,32.71,34.74,55.66,32.26,18.72-1.5,37.85-12.26,43.83-30.9a124,124,0,0,0,3.72-15.36v-.19c-.91-.47-1.81-.94-2.72-1.39-3-1.45-6-2.8-9-4.21-.34-.16-.72-.34-1.08-.54-.41,4.59-.82,9.17-1.16,13.76.07-.07.13-.15.21-.23,4.68-1.77-.69,8.87-2,10-9,10.71-22.93,18.63-37.16,18-15.51-1.15-32.27-8.86-39.3-23.39-1-2.45-2.66-5.44-1.56-8.08a1.25,1.25,0,0,1,1.65-.63c0-.78-.09-1.52-.17-2.2-.14-2.2-.21-4.41-.25-6.64a39.35,39.35,0,0,0-5.95,2.32c-2.59,1.28-5.17,2.62-7.73,4,0,.08,0,.16.05.23A57,57,0,0,0,199.93,354.3Z"/><path class="cls-3" d="M251.62,321.85l2.2-.07a79.63,79.63,0,0,0,37.47-11.68,69.9,69.9,0,0,0,18.62-17.51c7.82-12.51,12.67-26.25,18.65-39.64,3.74-12.05,7.68-24.05,12.46-35.74-.13-2,.16-4.56-.14-5.67-1.4-12.94-9.6-23.1-17.41-32.88a6.66,6.66,0,0,1-.77-7.81c1.26-2.92,2.3-6.19,3.24-9.16,5.77-16.2,2.38-35.5-9.84-47.77l-.08,0-.06,0a89.72,89.72,0,0,1-11,4c-18.38,5.57-37.87,6.6-57,6.52-10.07-.53-20.31-1-30.44-2.21,0,0-.06,0-.1,0l-.16,0c-11.08-1.3-22-3.42-32.45-7.33a19.36,19.36,0,0,1-3.92-2.24,70.15,70.15,0,0,0-4.5,8.17c-7.82,15.15-8.37,33.23-.35,48.3,1.66,2.46.39,5.14-1.33,7.16-7.52,9.62-13.41,21.09-13.78,33.5a53.24,53.24,0,0,0,.21,6.29c2.9,5.46,5.73,16.5,7,18.81,17.47,46.46,23.48,85,82.76,86.83A3,3,0,0,1,251.62,321.85Zm41-98c-11,2-15.36-12.83-5.41-17.05C296.62,204.21,302.62,221.24,292.61,223.86Zm-12.44-51c1-3.23,4.11-5.41,7.31-6.19a20.78,20.78,0,0,1,18.64,4.76c2.89,2.29,10.76,15.34,3.39,15.56-1.72.36-3.39-1-5-1.57-6.44-3.11-13.05-4.36-20.22-5.25C280.87,179.95,279.16,175.92,280.17,172.9Zm-33.55,80a19.94,19.94,0,0,0,6.34-.07c2.65,0,9.33-5,10.1-1.11,0,7.64-8.61,13.33-15.7,10.46a15.87,15.87,0,0,1-9-9.36C236.68,248.6,244.9,252.89,246.62,252.9Zm-35.48-29c-10-2.62-4-19.65,5.41-17.05C226.5,211,222.16,225.82,211.14,223.86Zm8.31-43.65c-7.17.89-13.78,2.14-20.22,5.25-1.6.53-3.27,1.94-5,1.58-7.37-.22.51-13.26,3.39-15.56a20.79,20.79,0,0,1,18.64-4.76c3.2.77,6.29,3,7.31,6.19C224.59,175.92,222.88,179.95,219.45,180.21Zm23.17,105.26c-1.44-.09-5.81-.57-8-1.87a1.73,1.73,0,0,1-2.85-.42c-1.24-2.31,3.2-5.28,4-2.57.7.08,1.4.26,2.06.36a49.39,49.39,0,0,0,13.69.61,51.7,51.7,0,0,0,17.11-4.43,2.41,2.41,0,0,1,.31-.17,2.52,2.52,0,0,1-.47-1.62c.37-1.63,2.46-.63,3.11.29s3,4.27.36,4.25a1.67,1.67,0,0,1-.36-.15c-1.2,1.55-4.71,2.1-6.25,3C258.17,285.7,250.23,285.67,242.62,285.48Z"/><path class="cls-7" d="M392.74,427c-21.85-41.66-55.61-79.4-99.9-97.32a4.35,4.35,0,0,0-2.08-.38c.09-1.07.19-2.15.27-3.22.33-3.2.5-6.41.9-9.61,0-.27.08-.57.11-.88a74.41,74.41,0,0,0,16.52-13.43c7.3-8.36,12.12-18.36,16.06-28.74.18.06.35.12.52.16,12.95,1.45,24.82-8.46,30.81-19.26,6.19-11.62,15.81-30.36,5.47-42a11.11,11.11,0,0,0-8.06-3,15.78,15.78,0,0,1,.82-2.63c5.17-16,7.89-32.75,10.14-49.42a204.13,204.13,0,0,0,2.53-27c.84-7.63-.25-15.25-4.6-21.71l.49-.21c6.64-2.15,12.73-12.55,3-14.87-18.63-6-31.4-21.7-46.71-33-30.86-23-115.29-36.41-140.82-1-5.8,7.18-9.53,15.8-12.51,24.48-.66,2.82-3.85,9.59-2.12,12.59a2.58,2.58,0,0,0-.43.13c-11.3,3.78-33.54,21.39-33.89,33.94-2.28,19.82,2.13,39.61,8,58.43,2.57,7.28,4.89,14.92,9,21.52a14.15,14.15,0,0,0-11.4,9.6c-1.91,6.66.42,13.65,2.62,20,5.31,14.06,14.06,30.28,30.34,32.86a18.56,18.56,0,0,0,8.48-.82c7.7,19.31,16.67,35,33.33,44.6a99.42,99.42,0,0,1,.95,13.75,31.37,31.37,0,0,0-3.75,1c-15,5.61-28.75,14.21-41.6,23.68-23.91,17.21-44.92,39-57.55,66q-4,8.4-7.26,17.1c-.55,1.55-1.46,3.79-.29,5,2,5,17.1,13.8,20.63,16.21,29.34,18.76,64.17,25.68,98.52,27.37a320.84,320.84,0,0,0,110.68-11.23c20.38-5.48,40.53-12.14,59.35-21.8,1.64-1.29,7.28-2.86,8-5.29a2.52,2.52,0,0,0,1.3,0c2.81-.77,2-3.85,1.08-5.82C397.53,437.4,395.25,432.15,392.74,427ZM360,231.33c-4.16,16.22-14.68,37-33.63,37.46q.88-2.49,1.73-5a2.37,2.37,0,0,0,1.33-.42c16.78-3.81,23.3-22,25.24-37.35.61-1.48,6.27-5.23,3-6.08-6.75,2.53-11.18,9.25-15.58,14.71a7.59,7.59,0,0,0-1.76,6.41c.29,5-2.15,9.69-5.54,13.33a47.35,47.35,0,0,1-5,4.41l.42-1.26c.62-1.7,1.24-3.39,2-5.05,4.3-10.81,8.63-21.88,12.34-33a4.06,4.06,0,0,0,.81-.65C356.59,207.87,363.39,219.6,360,231.33ZM333.86,259.9c4.63-3.8,8.48-8.84,9-15,.76-6.73,6.51-11.34,10.1-16.79C350.75,240.37,346.1,254.45,333.86,259.9Zm-188.4-62.27c-6.24-19.66-13.11-39.81-12.94-60.77.36-14.14,16.5-27.13,27.74-34.08,2-1.39,4.56-2.08,6.1-4a1.42,1.42,0,0,0-.24-1.78c.88-.78,1.28-2.39,1.69-3.42,1.19-3.89,2.36-7.8,3.83-11.6,4.71-12.65,12.47-24.94,24.81-31.42,29-14.1,77-7.14,105.64,5.92A128.14,128.14,0,0,1,328.69,74c11.11,10,22.22,21.5,37.47,24.75-.8,2.65-3.22,4.34-5.56,5.8a6.31,6.31,0,0,0-2.57,1.85c-.95.53-1.38,1.84-.41,3.75A54.08,54.08,0,0,1,363.15,126c.51,7.66-1.31,15.4-2.19,23-1.88,12.82-3.75,25.5-6.51,38.2-1.65,7.77-3.53,15.51-5.92,23.09a12.26,12.26,0,0,0-1.56.85c.13-1.22-.14-2.29-1.7-1.89a5.44,5.44,0,0,0-.55.64c-.76-10.88-6.94-20.65-13.69-29.06-1.58-2.15-3.47-4.1-4.71-6.48a21.8,21.8,0,0,1,1.65-4.49c8.47-18.14,8-41.31-6.1-56.55l-.73-.79c.95-.25,1.9-.48,2.84-.74a46.91,46.91,0,0,1,11.08-.87.53.53,0,0,0,.15-1.06,50.56,50.56,0,0,0-19-.77c-1.48-.88-3.52.33-5.25,1.07a49.6,49.6,0,0,0-7.64,2.66c-15.66,4.73-36.29,6.84-56.92,6.51-2.63-.72-5.24-1.52-7.83-2.28-15-5.89-31.49-19.51-27.79-37.47.07-.08.15-.31.24-.43.36-.59-.56-1.12-.92-.54a20.57,20.57,0,0,0-3.05,9.16c-.67,15.16,12.44,25.56,26.08,31-16.21-1.1-31.73-3.72-44.06-7.78-8.61-5.93-10.53-15.36-5.13-36a11.33,11.33,0,0,1,.66-2.39.53.53,0,0,0-1-.42,2.91,2.91,0,0,1-.36.69c-6.89,9.43-10.25,24.84-3.39,35a8,8,0,0,0-2.93,2.59,48.68,48.68,0,0,0-6.9,11.87c-7.48,16.53-6.32,34,2,50-8.61,12.05-17.68,26.59-15.1,41.46a14.81,14.81,0,0,0-4.73-2.8c-.3-.11-.6-.19-.9-.28A133.17,133.17,0,0,1,145.46,197.63ZM174,267.83c-17.84,1.86-27.35-17.05-32.43-31.46-1.48-4.78-3.17-10-1.64-15,4.55-9.56,13.32-5.83,18.32.68,1.55,5.33,4.25,11.39,5.05,14.3,2.64,7.18,5,14.12,7.39,20.75-5.92-3.24-11.49-8.06-11.62-15.37.05-1.89.45-4-.23-5.85-2-5-6-9-10.05-12.31-.73-.69-7.19-4.29-5.78-1.32,1.58,1.64,3.12,3.31,4.6,5a1,1,0,0,0-.06.37c.73,12.16,4.11,22.73,15.15,29.23a3.38,3.38,0,0,0,1.61.62,22,22,0,0,0,7.79,3.55q1.22,3.38,2.46,6.65C174.34,267.74,174.15,267.8,174,267.83ZM159.37,252c-6.57-4.6-9.74-13.37-10.08-21.31a5.42,5.42,0,0,1,0-1.44,50.57,50.57,0,0,1,7.44,12.09c.85,3,.68,6.27,1.92,9.17A14.14,14.14,0,0,0,159.37,252Zm8.89-17.14c-1.31-2.3-4.14-13.34-7-18.81a53.24,53.24,0,0,1-.21-6.29c.37-12.41,6.27-23.88,13.78-33.5,1.71-2,3-4.71,1.33-7.16-8-15.07-7.47-33.15.35-48.3a70.15,70.15,0,0,1,4.5-8.17,19.36,19.36,0,0,0,3.92,2.24c10.43,3.91,21.37,6,32.45,7.33l.16,0s.06,0,.1,0c10.13,1.18,20.37,1.68,30.44,2.21,19.11.08,38.59-.95,57-6.52a89.72,89.72,0,0,0,11-4l.06,0,.08,0c12.21,12.28,15.61,31.57,9.84,47.77-.95,3-2,6.25-3.24,9.16a6.66,6.66,0,0,0,.77,7.81c7.81,9.77,16,19.93,17.41,32.88.3,1.11,0,3.64.14,5.67-4.79,11.68-8.72,23.68-12.46,35.74-6,13.38-10.83,27.12-18.65,39.64a69.9,69.9,0,0,1-18.62,17.51,79.63,79.63,0,0,1-37.47,11.68l-2.2.07a3,3,0,0,0-.6-.11C191.74,319.87,185.73,281.37,168.26,234.91ZM284.85,353.22c-.21.26-.41.53-.63.78-8,8.16-18.28,15.38-30.06,16.26-15.19.41-31.67-7-39.27-20.53a106.56,106.56,0,0,0,.24-24.91c7.69,8.23,19.2,14.64,30.13,15.68,15.33,1.62,30.17-5.18,40.17-16.67a10.21,10.21,0,0,1,1.11-1.27c-.6,3.92-.81,7.92-1.14,11.85-.41,5.62-.33,11.27-.58,16.9C284.85,351.94,284.8,352.59,284.85,353.22ZM216,319.92c9.2,4,20.46,6.55,34.59,7.23a2.71,2.71,0,0,0,1.38-.23,79.23,79.23,0,0,0,33.8-7.87c-6.93,7-14.26,14-23.8,17.14-16.17,5.82-35.26,1.37-44.41-13.92C217.05,321.61,216.55,320.73,216,319.92Zm-11.31,17a39.35,39.35,0,0,1,5.95-2.32c0,2.22.11,4.44.25,6.64.09.68.13,1.43.17,2.2a1.25,1.25,0,0,0-1.65.63c-1.11,2.64.54,5.63,1.56,8.08,7,14.54,23.79,22.24,39.3,23.39,14.23.66,28.21-7.26,37.16-18,1.32-1.14,6.69-11.78,2-10-.07.07-.13.16-.21.23.34-4.59.75-9.17,1.16-13.76.37.19.74.37,1.08.54,3,1.41,6,2.77,9,4.21.91.45,1.81.92,2.72,1.39v.19a124,124,0,0,1-3.72,15.36c-6,18.64-25.11,29.4-43.83,30.9-23,2.47-47.62-9.79-55.66-32.26a57,57,0,0,1-2.94-13.2c0-.07,0-.15-.05-.23C199.49,339.5,202.07,338.16,204.66,336.88Zm-85,116.62a176.66,176.66,0,0,1-15.95-10.79,22.35,22.35,0,0,0,1.16-2.57c3.07-7.61,5.83-15.35,9.69-22.61a160.79,160.79,0,0,1,12.74-19.38c1.45,2.16,3.34,4.33,3.83,5.69,10.52,20.17,16.63,42.64,20.22,65A170.68,170.68,0,0,1,119.7,453.5ZM325,471.94c-35.47,9.56-72.46,12.41-109,9.52C195,480.39,174.2,476.84,154.51,470a210.67,210.67,0,0,0-5.32-29.78,178.65,178.65,0,0,0-13.9-37.4c-1.3-2-2.66-6.24-4.68-8.76,17-20.93,38.92-38,62.52-51.11-.13,4.35,1.69,10.86,2.36,12.75,7.08,22.05,29.29,35.54,51.81,36.27,21.46.83,46.58-8.75,54.45-30.25.86-2.38,5-12.59,5.84-19.25,22.73,12.73,43.16,31.46,59.39,53-3.35,4.28-5.68,9.31-8,14.19a121.86,121.86,0,0,0-12,55.85Q336.11,469.11,325,471.94Zm69-25.75a171.71,171.71,0,0,1-16.58,7.86c-8.86,3.9-17.9,7.35-27.07,10.42.29-4.17.52-8.35,1-12.5,2.09-18.79,8.69-36.84,17.79-53.46A205.48,205.48,0,0,1,395,445.92,2.12,2.12,0,0,0,394,446.19Z"/><path class="cls-7" d="M216.55,206.81c-9.42-2.6-15.42,14.44-5.41,17.05C222.16,225.82,226.5,211,216.55,206.81Z"/><path class="cls-7" d="M216.27,166.71a20.79,20.79,0,0,0-18.64,4.76c-2.88,2.29-10.76,15.34-3.39,15.56,1.72.36,3.39-1.05,5-1.58,6.45-3.11,13.06-4.36,20.22-5.25,3.43-.27,5.14-4.3,4.13-7.31C222.56,169.67,219.47,167.49,216.27,166.71ZM195.34,183.8c1-5.26,4.75-10.52,10.1-12.14,4.19-.94,12.16-1.58,13.4,3.81C210.64,176.62,201.71,178.08,195.34,183.8Z"/><path class="cls-7" d="M287.2,206.81c-9.95,4.22-5.6,19,5.41,17.05C302.62,221.24,296.62,204.21,287.2,206.81Z"/><path class="cls-7" d="M284.3,180.21c7.17.89,13.78,2.14,20.22,5.25,1.6.53,3.27,1.93,5,1.57,7.37-.21-.51-13.26-3.39-15.56a20.78,20.78,0,0,0-18.64-4.76c-3.2.77-6.29,3-7.31,6.19C279.16,175.92,280.87,179.95,284.3,180.21Zm14-8.56c5.36,1.63,9.09,6.89,10.1,12.14-6.36-5.72-15.29-7.18-23.49-8.33C286.15,170.08,294.12,170.72,298.31,171.66Z"/><path class="cls-7" d="M247.35,262.18c7.09,2.87,15.69-2.82,15.7-10.46-.77-3.87-7.45,1.1-10.1,1.11a19.94,19.94,0,0,1-6.34.07c-1.71,0-9.93-4.3-8.29-.08A15.87,15.87,0,0,0,247.35,262.18Zm13-8.26c-.52,4.11-4.85,6.68-8.7,7.11a11.16,11.16,0,0,1-2.49-.09c-3.32-.6-5.85-3.23-7.69-6A24.94,24.94,0,0,0,260.32,253.92Z"/><path class="cls-7" d="M271.57,279.78a1.67,1.67,0,0,0,.36.15c2.63,0,.3-3.2-.36-4.25s-2.74-1.92-3.11-.29a2.52,2.52,0,0,0,.47,1.62,2.41,2.41,0,0,0-.31.17,51.7,51.7,0,0,1-17.11,4.43,49.39,49.39,0,0,1-13.69-.61c-.65-.1-1.36-.28-2.06-.36-.82-2.71-5.25.26-4,2.57a1.73,1.73,0,0,0,2.85.42c2.2,1.3,6.57,1.77,8,1.87,7.61.19,15.55.22,22.7-2.72C266.86,281.88,270.37,281.33,271.57,279.78Z"/><path class="cls-2" d="M176.64,100a21.63,21.63,0,0,0,3.27,8A7.92,7.92,0,0,0,177,110.6a48.3,48.3,0,0,0-6.9,11.89c-7.49,16.52-6.34,34,1.94,50-8.6,12-17.68,26.58-15.09,41.46q-.48-.42-1-.77a175.83,175.83,0,0,1-10.46-49.76c-.81-13.06-.09-26.54,5.06-38.58C155.42,113.39,164.81,103.42,176.64,100Z"/><path class="cls-2" d="M343,201.39c-2.43-7.49-7-14.35-12-20.47-1.58-2.16-3.48-4.1-4.72-6.49a21.77,21.77,0,0,1,1.64-4.48c8.48-18.15,8-41.31-6.08-56.55-.26-.23-.49-.51-.75-.79,1-.23,1.9-.47,2.84-.73a47.17,47.17,0,0,1,11.08-.88.53.53,0,0,0,.6-.47.54.54,0,0,0-.45-.6,50.65,50.65,0,0,0-19-.77c-1.47-.88-3.52.34-5.25,1.07a49.13,49.13,0,0,0-7.64,2.67c-15.67,4.74-36.29,6.85-56.91,6.51-2.63-.73-5.25-1.52-7.83-2.28-15-5.89-31.49-19.49-27.8-37.47.06-.09.15-.32.23-.43a.53.53,0,0,0-.92-.53,20.47,20.47,0,0,0-3.05,9.16c-.66,15.16,12.45,25.55,26.07,31-16.2-1.11-31.72-3.71-44.06-7.77-7.39-5.1-9.86-12.79-7-27.92v0a33.78,33.78,0,0,1,3.74-5.4c5.06-6,11.93-10.25,19.11-13.47,19.55-8.73,41.93-10.18,63-6.3s40.92,12.89,59.11,24.23c3,1.86,6.36,5.17,4.8,8.33-.77,1.52-2.43,2.28-4,3L314.74,99.2c9.69-3.57,21.48,1.67,27.69,10.2,6.68,9.2,8.28,21.07,8.62,32.43A184.51,184.51,0,0,1,343,201.39Z"/><path class="cls-8" d="M139.77,423.22a240,240,0,0,1,11.63,45.66q-6.95-2.56-13.68-5.66C139.6,452.18,141.5,436.24,139.77,423.22Z"/><path class="cls-9" d="M143.33,421.29c6.92,10.61,17.7,29.84,22.2,52.17q-5.57-1.57-11-3.46a210.75,210.75,0,0,0-5.32-29.78A159.06,159.06,0,0,0,143.33,421.29Z"/><path class="cls-9" d="M347,465.59q-7.4,2.4-14.9,4.46c4.23-15,13-41.8,24.57-55.23A121.39,121.39,0,0,0,347,465.59Z"/><path class="cls-8" d="M359.44,461.28c-3,1.13-6,2.18-9.05,3.2.28-4.18.51-8.35,1-12.51a134.51,134.51,0,0,1,9.5-36.12C360.25,424.65,359.18,442.75,359.44,461.28Z"/></svg>